<svg width="1088" height="521" viewBox="0 0 1088 521" fill="none" xmlns="http://www.w3.org/2000/svg">
<rect width="1088" height="521" fill="#C4C4C4"/>
<path d="M520.669 239.232C520.669 236.029 519.489 233.258 517.131 230.918C514.773 228.578 511.98 227.408 508.753 227.408C505.402 227.408 502.578 228.578 500.282 230.918C497.985 233.258 496.837 236.029 496.837 239.232C496.837 242.557 497.985 245.359 500.282 247.638C502.578 249.916 505.402 251.056 508.753 251.056C511.98 251.056 514.773 249.916 517.131 247.638C519.489 245.359 520.669 242.557 520.669 239.232ZM532.584 274.704L520.669 259L496.837 290.592H592.163L556.416 243.296L532.584 274.704ZM607.988 196H481.012C476.543 196 472.758 197.54 469.655 200.619C466.552 203.698 465 207.393 465 211.704V306.296C465 310.607 466.552 314.302 469.655 317.381C472.758 320.46 476.543 322 481.012 322H607.988C612.457 322 616.242 320.46 619.345 317.381C622.448 314.302 624 310.607 624 306.296V211.704C624 207.393 622.448 203.698 619.345 200.619C616.242 197.54 612.457 196 607.988 196ZM481.012 306.296V211.704H607.988V306.296H481.012Z" fill="white"/>
</svg>
